<?xml version="1.0" standalone="no"?>
<!DOCTYPE svg PUBLIC "-//W3C//DTD SVG 20010904//EN"
 "http://www.w3.org/TR/2001/REC-SVG-20010904/DTD/svg10.dtd">
<svg version="1.0" xmlns="http://www.w3.org/2000/svg"
 width="700.000000pt" height="700.000000pt" viewBox="0 0 700.000000 700.000000"
 preserveAspectRatio="xMidYMid meet">
<metadata>
Created by potrace 1.11, written by Peter Selinger 2001-2013
</metadata>
<g transform="translate(0.000000,700.000000) scale(0.100000,-0.100000)"
fill="#000000" stroke="none">
<path d="M0 3500 l0 -3500 3500 0 3500 0 0 3500 0 3500 -3500 0 -3500 0 0
-3500z m3215 3193 c35 -260 97 -445 204 -601 48 -70 160 -179 222 -215 295
-172 659 -41 904 328 51 76 131 229 153 294 l11 30 78 -32 c118 -47 365 -175
481 -247 160 -100 355 -249 344 -263 -270 -332 -378 -656 -305 -916 53 -193
208 -339 418 -396 93 -25 291 -30 410 -11 81 13 287 75 366 110 13 6 23 -7 47
-66 105 -253 198 -620 218 -857 l7 -77 -94 -12 c-315 -39 -590 -175 -728 -360
-268 -356 -64 -810 481 -1072 57 -27 109 -50 116 -50 17 0 12 -16 -50 -155
-112 -246 -263 -490 -455 -732 -9 -12 -26 -3 -103 55 -268 204 -580 290 -829
231 -94 -23 -173 -69 -246 -143 -79 -80 -123 -160 -157 -283 -29 -110 -29
-308 1 -450 22 -105 69 -250 102 -315 l19 -37 -128 -49 c-221 -86 -464 -149
-723 -187 -59 -8 -123 -15 -143 -15 -34 0 -36 2 -36 33 0 17 -7 71 -15 120
-80 456 -324 750 -648 783 -122 12 -277 -36 -404 -125 -161 -113 -328 -340
-408 -553 -10 -27 -19 -48 -20 -48 -1 0 -30 12 -65 26 -204 83 -485 237 -656
361 -126 91 -183 137 -184 149 0 6 12 21 26 35 34 31 156 214 195 291 17 33
46 108 66 166 32 94 37 122 41 232 7 199 -37 328 -152 444 -209 211 -619 244
-1011 82 -33 -13 -63 -21 -67 -18 -12 12 -97 240 -129 345 -55 185 -101 413
-123 602 l-6 51 119 17 c424 61 735 276 807 557 23 90 15 242 -16 325 -82 214
-264 395 -534 530 -71 36 -135 65 -142 65 -19 0 -18 12 12 83 76 182 219 439
337 606 58 81 158 211 163 211 1 0 41 -29 87 -64 209 -157 412 -241 618 -253
120 -7 212 8 304 51 97 45 164 102 219 185 148 223 154 545 15 893 -22 55 -38
102 -37 104 19 18 265 106 416 148 169 47 468 103 564 105 37 1 37 1 43 -46z"/>
<path d="M3330 5434 c-14 -2 -63 -9 -110 -15 -554 -72 -1077 -415 -1388 -911
-194 -308 -294 -660 -294 -1038 0 -535 200 -1018 576 -1395 377 -376 857 -574
1394 -575 535 0 1010 196 1388 574 310 310 484 649 561 1091 23 138 23 470 -1
610 -58 338 -173 608 -382 891 -73 100 -264 291 -370 371 -256 194 -558 324
-878 379 -86 15 -440 28 -496 18z m445 -270 c377 -62 687 -222 955 -494 213
-216 358 -471 439 -770 69 -256 70 -589 0 -862 -136 -537 -550 -993 -1074
-1181 -202 -73 -364 -101 -585 -101 -285 0 -516 53 -766 177 -765 378 -1134
1265 -864 2077 121 365 356 673 674 885 362 241 800 337 1221 269z"/>
<path d="M3375 4974 c-241 -28 -445 -93 -622 -198 -355 -210 -608 -540 -709
-928 -59 -228 -59 -524 1 -758 134 -525 560 -951 1085 -1085 194 -50 434 -59
633 -25 507 86 940 430 1138 905 92 220 132 481 111 713 -35 367 -180 679
-438 936 -249 250 -556 397 -906 435 -92 10 -226 12 -293 5z"/>
</g>
</svg>
